<svg width="564" height="564" viewBox="0 0 564 564" fill="none" xmlns="http://www.w3.org/2000/svg">
<g clip-path="url(#clip0_88_2)">
<path d="M248.697 471.684C242.38 472.358 235.952 469.383 232.509 463.555C227.81 455.6 230.45 445.343 238.404 440.643L441.356 320.749C449.308 316.052 459.568 318.689 464.268 326.644C468.968 334.598 466.327 344.855 458.373 349.555L255.421 469.45C253.295 470.706 251.004 471.438 248.697 471.684Z" fill="#D9D9D9"/>
<path d="M461.992 448.931C459.685 449.177 457.293 448.945 454.948 448.165L231.271 373.782C222.504 370.865 217.762 361.395 220.676 352.629C223.592 343.861 233.061 339.119 241.828 342.034L465.505 416.417C474.272 419.333 479.015 428.804 476.101 437.569C473.965 443.993 468.31 448.257 461.992 448.931Z" fill="#D9D9D9"/>
<path d="M188.696 133.491C184.044 133.988 179.903 136.659 177.531 140.692C175.16 144.725 174.837 149.646 176.667 153.952L240.419 304.021C242.962 310.006 249.111 313.614 255.577 312.924C296.325 308.577 436.632 293.61 477.629 289.237C484.088 288.548 489.347 283.715 490.568 277.337L521.228 117.196C522.109 112.601 520.757 107.861 517.588 104.418C514.419 100.976 509.806 99.2385 505.154 99.7347C442.751 106.39 251.139 126.83 188.696 133.491Z" fill="#7E7E7E" fill-opacity="0.8"/>
<path d="M485.912 348.131L216.304 376.892C208.982 377.673 202.011 373.576 199.132 366.798L90.0611 110.046L23.7812 117.117C14.5953 118.097 6.35307 111.444 5.37315 102.258C4.39324 93.0718 11.0464 84.8285 20.2323 83.8486L98.8363 75.4635C106.158 74.6824 113.129 78.7791 116.008 85.5569L225.08 342.31L482.363 314.864C491.549 313.884 499.791 320.537 500.771 329.723C501.752 338.911 495.099 347.151 485.912 348.131Z" fill="#D9D9D9"/>
<path d="M220.542 427.286C196.731 429.826 179.429 451.264 181.969 475.073C184.509 498.883 205.946 516.188 229.755 513.648C253.564 511.108 270.869 489.671 268.329 465.86C265.79 442.05 244.352 424.746 220.542 427.286ZM226.206 480.38C220.739 480.963 215.819 476.991 215.236 471.524C214.653 466.058 218.625 461.137 224.091 460.554C229.557 459.97 234.478 463.943 235.061 469.409C235.645 474.876 231.672 479.797 226.206 480.38Z" fill="#D9D9D9"/>
<path d="M480.936 399.508C457.125 402.049 439.822 423.486 442.362 447.295C444.902 471.106 466.34 488.41 490.149 485.87C513.958 483.331 531.262 461.893 528.722 438.082C526.182 414.272 504.747 396.968 480.936 399.508ZM486.6 452.602C481.133 453.185 476.213 449.213 475.629 443.746C475.046 438.28 479.019 433.359 484.485 432.776C489.951 432.193 494.872 436.165 495.455 441.631C496.038 447.098 492.067 452.019 486.6 452.602Z" fill="#D9D9D9"/>
<path d="M220.542 427.287L224.091 460.554C229.558 459.971 234.478 463.943 235.062 469.409C235.645 474.876 231.672 479.797 226.206 480.38L229.755 513.649C253.566 511.109 270.869 489.671 268.329 465.86C265.79 442.05 244.352 424.747 220.542 427.287Z" fill="#CFD0D4"/>
<path d="M480.936 399.509L484.485 432.776C489.952 432.193 494.872 436.165 495.455 441.631C496.038 447.098 492.066 452.019 486.6 452.603L490.149 485.871C513.96 483.331 531.262 461.893 528.722 438.083C526.182 414.273 504.747 396.969 480.936 399.509Z" fill="#CFD0D4"/>
<path d="M517.589 104.418C514.42 100.976 509.807 99.2383 505.156 99.7345C473.952 103.063 410.44 109.838 346.926 116.614L366.605 301.081C411.869 296.253 457.146 291.423 477.63 289.237C484.088 288.548 489.347 283.716 490.568 277.338L521.229 117.197C522.109 112.6 520.758 107.859 517.589 104.418Z" fill="#7E7E7E" fill-opacity="0.01"/>
</g>
<defs>
<clipPath id="clip0_88_2">
<rect width="512" height="512" fill="white" transform="translate(0.289062 54.5991) rotate(-6.08907)"/>
</clipPath>
</defs>
</svg>
